# xmcd
#
# Track frame offsets:
# 150
# 16802
# 43341
# 73350
# 103415
# 133936
# 160952
# 186986
# 210861
# 230969
#
# Disc length: 3574 seconds
#
# Revision: 0
# Processed by: cddbd v1.5.2PL0 Copyright (c) Steve Scherf et al.
# Submitted via: Audion 3.0.2 (http://www.panic.com/audion/)
#
DISCID=9b0df40a
DTITLE=Trio di Salerno - Cantabile
DYEAR=1900
DGENRE=
TTITLE0=Carmen
TTITLE1=Bianca
TTITLE2=You know what love is
TTITLE3=Life Portraits
TTITLE4=Coimbra
TTITLE5=Madrigale
TTITLE6=Calero
TTITLE7=Cavallo marino
TTITLE8=Free four
TTITLE9=Cantabile 2
EXTD=
EXTT0=
EXTT1=
EXTT2=
EXTT3=
EXTT4=
EXTT5=
EXTT6=
EXTT7=
EXTT8=
EXTT9=
PLAYORDER=
